<svg xmlns="http://www.w3.org/2000/svg" xmlns:xlink="http://www.w3.org/1999/xlink" width="1920" zoomAndPan="magnify" viewBox="0 0 1440 1439.999935" height="1920" preserveAspectRatio="xMidYMid meet" version="1.0"><defs><g/><clipPath id="38c7a0f175"><path d="M 686 515 L 1221 515 L 1221 928.992188 L 686 928.992188 Z M 686 515 " clip-rule="nonzero"/></clipPath></defs><rect x="-144" width="1728" fill="#ffffff" y="-143.999994" height="1727.999922" fill-opacity="1"/><rect x="-144" width="1728" fill="#ffffff" y="-143.999994" height="1727.999922" fill-opacity="1"/><g clip-path="url(#38c7a0f175)"><path fill="#000002" d="M 925.25 601.792969 C 930.519531 591.496094 934.21875 583.292969 938.742188 575.585938 C 956.378906 545.53125 980.347656 523.089844 1015.863281 517.289062 C 1044.816406 512.5625 1072.835938 517.472656 1098.9375 531.308594 C 1133.40625 549.574219 1153.226562 578.949219 1161.058594 616.503906 C 1167.304688 646.441406 1163.90625 675.996094 1154.3125 704.882812 C 1153.234375 708.132812 1151.78125 711.261719 1150.308594 714.925781 C 1108.121094 714.925781 1066.21875 714.925781 1022.792969 714.925781 C 1019.800781 709.367188 1016.253906 703.042969 1012.945312 696.597656 C 1008.191406 687.355469 1003.445312 678.113281 999.003906 668.722656 C 995.21875 660.730469 989.996094 654.34375 980.515625 654.953125 C 971.289062 655.546875 966.472656 661.792969 963.386719 670.378906 C 954.910156 694.007812 945.832031 717.429688 936.964844 740.921875 C 936.210938 742.925781 935.3125 744.878906 933.789062 748.507812 C 931.964844 745.003906 930.417969 742.792969 929.601562 740.328125 C 918.929688 708.296875 908.359375 676.234375 897.765625 644.179688 C 897.085938 642.121094 896.601562 639.996094 895.800781 637.992188 C 892.832031 630.5625 887.691406 625.417969 879.398438 625.347656 C 871.304688 625.285156 865.566406 629.542969 862.480469 637.191406 C 854.714844 656.46875 846.929688 675.742188 839.105469 694.996094 C 836.503906 701.394531 833.75 707.734375 830.449219 715.558594 C 825.570312 715.558594 820.476562 715.550781 815.390625 715.558594 C 802.835938 715.589844 790.261719 715.257812 777.71875 715.773438 C 767.726562 716.183594 761.46875 723 761.238281 732.339844 C 761.023438 741.183594 766.496094 748.121094 775.390625 749.933594 C 777.90625 750.441406 780.558594 750.371094 783.144531 750.378906 C 801.765625 750.410156 820.390625 750.132812 839.003906 750.488281 C 850.078125 750.695312 856.824219 745.859375 860.695312 735.644531 C 865.585938 722.738281 871.011719 710.03125 877.191406 694.808594 C 879.890625 702.488281 881.898438 707.886719 883.707031 713.355469 C 894.03125 744.59375 904.335938 775.835938 914.578125 807.105469 C 917.199219 815.113281 921.449219 821.027344 930.734375 821.542969 C 939.835938 822.054688 945.4375 818.511719 949.269531 808.582031 C 956.433594 790.003906 963.257812 771.296875 970.226562 752.644531 C 974.460938 741.3125 978.714844 729.992188 983.671875 716.746094 C 987.164062 723.578125 990.324219 728.566406 992.363281 733.988281 C 996.980469 746.265625 1005.375 750.703125 1018.441406 750.601562 C 1077.761719 750.140625 1137.089844 750.386719 1196.421875 750.402344 C 1200.746094 750.402344 1205.132812 750.164062 1209.394531 750.726562 C 1216.078125 751.605469 1220.773438 756.933594 1220.820312 762.886719 C 1220.867188 768.765625 1216.21875 774.203125 1209.601562 775.324219 C 1206.222656 775.894531 1202.699219 775.648438 1199.238281 775.65625 C 1174.554688 775.6875 1149.871094 775.789062 1125.1875 775.632812 C 1119.640625 775.59375 1115.570312 776.84375 1111.855469 781.59375 C 1072.652344 831.757812 1023.417969 870.382812 969.957031 904 C 957.871094 911.601562 945.277344 918.386719 933.003906 925.699219 C 928.140625 928.59375 923.738281 928.984375 918.523438 926.074219 C 852.628906 889.320312 791.761719 846.199219 743.480469 787.269531 C 718.207031 756.425781 698.6875 722.390625 690.628906 682.828125 C 682.757812 644.148438 685.914062 606.625 707.34375 572.582031 C 729.164062 537.914062 762.171875 520.679688 802.21875 516.457031 C 851.890625 511.21875 887.214844 533.464844 912.015625 575.109375 C 914.445312 579.199219 916.484375 583.527344 918.601562 587.785156 C 920.507812 591.605469 922.277344 595.503906 925.25 601.792969 Z M 925.25 601.792969 " fill-opacity="1" fill-rule="nonzero"/></g><g fill="#000000" fill-opacity="1"><g transform="translate(247.668556, 918.165874)"><g><path d="M 420.53125 -320.40625 C 420.53125 -363.953125 384.984375 -400.5 340.421875 -400.5 L 20.03125 -400.5 L 20.03125 0 L 340.421875 0 C 384.984375 0 420.53125 -36.546875 420.53125 -80.09375 L 420.53125 -160.203125 C 420.53125 -182.234375 402.5 -200.25 380.46875 -200.25 C 402.5 -200.25 420.53125 -218.265625 420.53125 -240.296875 Z M 340.421875 -320.40625 L 340.421875 -240.296875 L 100.125 -240.296875 L 100.125 -320.40625 Z M 100.125 -80.09375 L 100.125 -160.203125 L 340.421875 -160.203125 L 340.421875 -80.09375 Z M 100.125 -80.09375 "/></g></g></g><g fill="#000000" fill-opacity="1"><g transform="translate(1027.911347, 743.053698)"><g><path d="M 15.921875 0 C 18.015625 0 19.671875 -1.703125 19.671875 -3.75 L 19.671875 -14.984375 C 19.671875 -17.046875 17.984375 -18.734375 15.921875 -18.734375 L 4.6875 -18.734375 C 2.625 -18.734375 0.9375 -17.046875 0.9375 -14.984375 L 0.9375 -3.75 C 0.9375 -1.6875 2.625 0 4.6875 0 Z M 4.6875 -14.984375 L 15.921875 -14.984375 L 15.921875 -3.75 L 4.6875 -3.75 Z M 12.171875 -7.5 L 12.171875 -11.25 L 8.4375 -11.25 L 8.4375 -7.5 Z M 12.171875 -7.5 "/></g></g></g><g fill="#000000" fill-opacity="1"><g transform="translate(1052.219472, 743.053698)"><g><path d="M 12.171875 -14.984375 C 12.171875 -17.046875 10.5 -18.734375 8.4375 -18.734375 L 0.9375 -18.734375 L 0.9375 -14.984375 L 8.4375 -14.984375 L 8.4375 -3.75 L 0.9375 -3.75 L 0.9375 0 L 19.671875 0 L 19.671875 -3.75 L 12.171875 -3.75 Z M 12.171875 -14.984375 "/></g></g></g><g fill="#000000" fill-opacity="1"><g transform="translate(1076.527598, 743.053698)"><g><path d="M 15.921875 0 C 18.015625 0 19.671875 -1.703125 19.671875 -3.75 L 19.671875 -14.984375 C 19.671875 -17.046875 17.984375 -18.734375 15.921875 -18.734375 L 4.6875 -18.734375 C 2.625 -18.734375 0.9375 -17.046875 0.9375 -14.984375 L 0.9375 -3.75 C 0.9375 -1.6875 2.625 0 4.6875 0 Z M 4.6875 -14.984375 L 15.921875 -14.984375 L 15.921875 -3.75 L 4.6875 -3.75 Z M 12.171875 -7.5 L 12.171875 -11.25 L 8.4375 -11.25 L 8.4375 -7.5 Z M 12.171875 -7.5 "/></g></g></g><g fill="#000000" fill-opacity="1"><g transform="translate(1100.835721, 743.053698)"><g><path d="M 15.921875 0 C 18.015625 0 19.671875 -1.703125 19.671875 -3.75 L 19.671875 -14.984375 C 19.671875 -17.046875 17.984375 -18.734375 15.921875 -18.734375 L 4.6875 -18.734375 C 2.625 -18.734375 0.9375 -17.046875 0.9375 -14.984375 L 0.9375 -3.75 C 0.9375 -1.6875 2.625 0 4.6875 0 Z M 4.6875 -14.984375 L 15.921875 -14.984375 L 15.921875 -3.75 L 4.6875 -3.75 Z M 12.171875 -7.5 L 12.171875 -11.25 L 8.4375 -11.25 L 8.4375 -7.5 Z M 12.171875 -7.5 "/></g></g></g><g fill="#000000" fill-opacity="1"><g transform="translate(1125.143848, 743.053698)"><g><path d="M 15.921875 0 C 18.015625 0 19.671875 -1.703125 19.671875 -3.75 L 19.671875 -14.984375 C 19.671875 -17.046875 17.984375 -18.734375 15.921875 -18.734375 L 4.6875 -18.734375 C 2.625 -18.734375 0.9375 -17.046875 0.9375 -14.984375 L 0.9375 -3.75 C 0.9375 -1.6875 2.625 0 4.6875 0 Z M 4.6875 -14.984375 L 15.921875 -14.984375 L 15.921875 -3.75 L 4.6875 -3.75 Z M 12.171875 -7.5 L 12.171875 -11.25 L 8.4375 -11.25 L 8.4375 -7.5 Z M 12.171875 -7.5 "/></g></g></g><g fill="#000000" fill-opacity="1"><g transform="translate(1149.451975, 743.053698)"><g><path d="M 15.921875 0 C 18.015625 0 19.671875 -1.703125 19.671875 -3.75 L 19.671875 -14.984375 C 19.671875 -17.046875 17.984375 -18.734375 15.921875 -18.734375 L 4.6875 -18.734375 C 2.625 -18.734375 0.9375 -17.046875 0.9375 -14.984375 L 0.9375 -3.75 C 0.9375 -1.6875 2.625 0 4.6875 0 Z M 4.6875 -14.984375 L 15.921875 -14.984375 L 15.921875 -3.75 L 4.6875 -3.75 Z M 12.171875 -7.5 L 12.171875 -11.25 L 8.4375 -11.25 L 8.4375 -7.5 Z M 12.171875 -7.5 "/></g></g></g><g fill="#000000" fill-opacity="1"><g transform="translate(1173.760096, 743.053698)"><g><path d="M 12.171875 -14.984375 C 12.171875 -17.046875 10.5 -18.734375 8.4375 -18.734375 L 0.9375 -18.734375 L 0.9375 -14.984375 L 8.4375 -14.984375 L 8.4375 -3.75 L 0.9375 -3.75 L 0.9375 0 L 19.671875 0 L 19.671875 -3.75 L 12.171875 -3.75 Z M 12.171875 -14.984375 "/></g></g></g><g fill="#000000" fill-opacity="1"><g transform="translate(1198.068216, 743.053698)"><g><path d="M 15.921875 0 C 18.015625 0 19.671875 -1.703125 19.671875 -3.75 L 19.671875 -14.984375 C 19.671875 -17.046875 17.984375 -18.734375 15.921875 -18.734375 L 4.6875 -18.734375 C 2.625 -18.734375 0.9375 -17.046875 0.9375 -14.984375 L 0.9375 -3.75 C 0.9375 -1.6875 2.625 0 4.6875 0 Z M 4.6875 -14.984375 L 15.921875 -14.984375 L 15.921875 -3.75 L 4.6875 -3.75 Z M 12.171875 -7.5 L 12.171875 -11.25 L 8.4375 -11.25 L 8.4375 -7.5 Z M 12.171875 -7.5 "/></g></g></g></svg>