<svg xmlns="http://www.w3.org/2000/svg" xmlns:xlink="http://www.w3.org/1999/xlink" width="1920" zoomAndPan="magnify" viewBox="0 0 1440 1439.999935" height="1920" preserveAspectRatio="xMidYMid meet" version="1.0"><defs><g/></defs><path stroke-linecap="butt" transform="matrix(0.749984, -0.00483512, 0.00483512, 0.749984, 988.699507, 875.409408)" fill="none" stroke-linejoin="miter" d="M 0.00234069 2.001055 L 310.201539 2.000855 " stroke="#000000" stroke-width="4" stroke-opacity="1" stroke-miterlimit="4"/><path stroke-linecap="butt" transform="matrix(0.75, -0.000000000000000558, 0.000000000000000558, 0.75, 218.860355, 873.909456)" fill="none" stroke-linejoin="miter" d="M -0.0013068 2.000934 L 309.90497 2.000934 " stroke="#000000" stroke-width="4" stroke-opacity="1" stroke-miterlimit="4"/><g fill="#000000" fill-opacity="1"><g transform="translate(208.765678, 778.685528)"><g><path d="M 215.046875 -163.84375 C 215.046875 -186.109375 196.859375 -204.796875 174.078125 -204.796875 L 10.234375 -204.796875 L 10.234375 0 L 174.078125 0 C 196.859375 0 215.046875 -18.6875 215.046875 -40.953125 L 215.046875 -81.921875 C 215.046875 -93.1875 205.828125 -102.40625 194.5625 -102.40625 C 205.828125 -102.40625 215.046875 -111.609375 215.046875 -122.875 Z M 174.078125 -163.84375 L 174.078125 -122.875 L 51.203125 -122.875 L 51.203125 -163.84375 Z M 51.203125 -40.953125 L 51.203125 -81.921875 L 174.078125 -81.921875 L 174.078125 -40.953125 Z M 51.203125 -40.953125 "/></g></g></g><g fill="#000000" fill-opacity="1"><g transform="translate(474.493573, 778.685528)"><g><path d="M 174.078125 -122.875 L 51.203125 -122.875 L 51.203125 -204.796875 L 10.234375 -204.796875 L 10.234375 -122.875 C 10.234375 -100.359375 28.671875 -81.921875 51.203125 -81.921875 L 174.078125 -81.921875 L 174.078125 -40.953125 L 10.234375 -40.953125 L 10.234375 0 L 174.078125 0 C 196.609375 0 215.046875 -18.4375 215.046875 -40.953125 L 215.046875 -204.796875 L 174.078125 -204.796875 Z M 174.078125 -122.875 "/></g></g></g><g fill="#000000" fill-opacity="1"><g transform="translate(740.221468, 778.685528)"><g><path d="M 215.046875 -204.796875 L 10.234375 -204.796875 L 10.234375 -163.84375 L 92.15625 -163.84375 L 92.15625 0 L 133.125 0 L 133.125 -163.84375 L 215.046875 -163.84375 Z M 215.046875 -204.796875 "/></g></g></g><g fill="#000000" fill-opacity="1"><g transform="translate(1005.949403, 778.685528)"><g><path d="M 215.046875 -204.796875 L 51.203125 -204.796875 C 28.671875 -204.796875 10.234375 -186.375 10.234375 -163.84375 L 10.234375 -40.953125 C 10.234375 -18.4375 28.671875 0 51.203125 0 L 215.046875 0 L 215.046875 -40.953125 L 51.203125 -40.953125 L 51.203125 -81.921875 L 215.046875 -81.921875 L 215.046875 -122.875 L 51.203125 -122.875 L 51.203125 -163.84375 L 215.046875 -163.84375 Z M 215.046875 -204.796875 "/></g></g></g><g fill="#000000" fill-opacity="1"><g transform="translate(541.162786, 889.187773)"><g><path d="M 59.703125 -56.859375 L 14.21875 -56.859375 C 7.953125 -56.859375 2.84375 -51.75 2.84375 -45.484375 L 2.84375 -34.125 C 2.84375 -27.859375 7.953125 -22.75 14.21875 -22.75 L 48.328125 -22.75 L 48.328125 -11.375 L 2.84375 -11.375 L 2.84375 0 L 48.328125 0 C 54.59375 0 59.703125 -5.125 59.703125 -11.375 L 59.703125 -22.75 C 59.703125 -29 54.59375 -34.125 48.328125 -34.125 L 14.21875 -34.125 L 14.21875 -45.484375 L 59.703125 -45.484375 Z M 59.703125 -56.859375 "/></g></g></g><g fill="#000000" fill-opacity="1"><g transform="translate(614.943428, 889.187773)"><g><path d="M 14.21875 -56.859375 C 7.953125 -56.859375 2.84375 -51.75 2.84375 -45.484375 L 2.84375 0 L 14.21875 0 L 14.21875 -22.75 L 48.328125 -22.75 L 48.328125 0 L 59.703125 0 L 59.703125 -45.484375 C 59.703125 -51.75 54.59375 -56.859375 48.328125 -56.859375 Z M 14.21875 -45.484375 L 48.328125 -45.484375 L 48.328125 -34.125 L 14.21875 -34.125 Z M 14.21875 -45.484375 "/></g></g></g><g fill="#000000" fill-opacity="1"><g transform="translate(688.72407, 889.187773)"><g><path d="M 39.3125 -59.703125 L 50.671875 -71.078125 L 34.609375 -71.078125 L 23.25 -59.703125 Z M 48.328125 0 C 54.59375 0 59.703125 -5.125 59.703125 -11.375 L 59.703125 -56.859375 L 48.328125 -56.859375 L 48.328125 -11.375 L 14.21875 -11.375 L 14.21875 -56.859375 L 2.84375 -56.859375 L 2.84375 -11.375 C 2.84375 -5.125 7.953125 0 14.21875 0 Z M 48.328125 0 "/></g></g></g><g fill="#000000" fill-opacity="1"><g transform="translate(762.504723, 889.187773)"><g><path d="M 48.328125 0 C 54.59375 0 59.703125 -5.125 59.703125 -11.375 L 59.703125 -45.484375 C 59.703125 -51.75 54.59375 -56.859375 48.328125 -56.859375 L 2.84375 -56.859375 L 2.84375 0 Z M 14.21875 -45.484375 L 48.328125 -45.484375 L 48.328125 -11.375 L 14.21875 -11.375 Z M 14.21875 -45.484375 "/></g></g></g><g fill="#000000" fill-opacity="1"><g transform="translate(836.285354, 889.187773)"><g><path d="M 59.703125 -56.859375 L 14.21875 -56.859375 C 7.953125 -56.859375 2.84375 -51.75 2.84375 -45.484375 L 2.84375 -11.375 C 2.84375 -5.125 7.953125 0 14.21875 0 L 59.703125 0 L 59.703125 -11.375 L 14.21875 -11.375 L 14.21875 -22.75 L 59.703125 -22.75 L 59.703125 -34.125 L 14.21875 -34.125 L 14.21875 -45.484375 L 59.703125 -45.484375 Z M 59.703125 -56.859375 "/></g></g></g><path stroke-linecap="butt" transform="matrix(0.75, 0.000000000000000191, -0.000000000000000191, 0.75, 218.860355, 485.015242)" fill="none" stroke-linejoin="miter" d="M -0.0013068 2.000511 L 1336.670684 2.000511 " stroke="#000000" stroke-width="4" stroke-opacity="1" stroke-miterlimit="4"/><g fill="#ffffff" fill-opacity="1"><g transform="translate(1020.806496, 685.975769)"><g><path d="M 16.5625 0 C 18.734375 0 20.46875 -1.78125 20.46875 -3.890625 L 20.46875 -15.59375 C 20.46875 -17.734375 18.703125 -19.484375 16.5625 -19.484375 L 4.875 -19.484375 C 2.734375 -19.484375 0.96875 -17.734375 0.96875 -15.59375 L 0.96875 -3.890625 C 0.96875 -1.75 2.734375 0 4.875 0 Z M 4.875 -15.59375 L 16.5625 -15.59375 L 16.5625 -3.890625 L 4.875 -3.890625 Z M 12.671875 -7.796875 L 12.671875 -11.6875 L 8.765625 -11.6875 L 8.765625 -7.796875 Z M 12.671875 -7.796875 "/></g></g></g><g fill="#ffffff" fill-opacity="1"><g transform="translate(1046.083655, 685.975769)"><g><path d="M 12.671875 -15.59375 C 12.671875 -17.734375 10.90625 -19.484375 8.765625 -19.484375 L 0.96875 -19.484375 L 0.96875 -15.59375 L 8.765625 -15.59375 L 8.765625 -3.890625 L 0.96875 -3.890625 L 0.96875 0 L 20.46875 0 L 20.46875 -3.890625 L 12.671875 -3.890625 Z M 12.671875 -15.59375 "/></g></g></g><g fill="#ffffff" fill-opacity="1"><g transform="translate(1071.360814, 685.975769)"><g><path d="M 16.5625 0 C 18.734375 0 20.46875 -1.78125 20.46875 -3.890625 L 20.46875 -15.59375 C 20.46875 -17.734375 18.703125 -19.484375 16.5625 -19.484375 L 4.875 -19.484375 C 2.734375 -19.484375 0.96875 -17.734375 0.96875 -15.59375 L 0.96875 -3.890625 C 0.96875 -1.75 2.734375 0 4.875 0 Z M 4.875 -15.59375 L 16.5625 -15.59375 L 16.5625 -3.890625 L 4.875 -3.890625 Z M 12.671875 -7.796875 L 12.671875 -11.6875 L 8.765625 -11.6875 L 8.765625 -7.796875 Z M 12.671875 -7.796875 "/></g></g></g><g fill="#ffffff" fill-opacity="1"><g transform="translate(1096.637974, 685.975769)"><g><path d="M 16.5625 0 C 18.734375 0 20.46875 -1.78125 20.46875 -3.890625 L 20.46875 -15.59375 C 20.46875 -17.734375 18.703125 -19.484375 16.5625 -19.484375 L 4.875 -19.484375 C 2.734375 -19.484375 0.96875 -17.734375 0.96875 -15.59375 L 0.96875 -3.890625 C 0.96875 -1.75 2.734375 0 4.875 0 Z M 4.875 -15.59375 L 16.5625 -15.59375 L 16.5625 -3.890625 L 4.875 -3.890625 Z M 12.671875 -7.796875 L 12.671875 -11.6875 L 8.765625 -11.6875 L 8.765625 -7.796875 Z M 12.671875 -7.796875 "/></g></g></g><g fill="#ffffff" fill-opacity="1"><g transform="translate(1121.915133, 685.975769)"><g><path d="M 16.5625 0 C 18.734375 0 20.46875 -1.78125 20.46875 -3.890625 L 20.46875 -15.59375 C 20.46875 -17.734375 18.703125 -19.484375 16.5625 -19.484375 L 4.875 -19.484375 C 2.734375 -19.484375 0.96875 -17.734375 0.96875 -15.59375 L 0.96875 -3.890625 C 0.96875 -1.75 2.734375 0 4.875 0 Z M 4.875 -15.59375 L 16.5625 -15.59375 L 16.5625 -3.890625 L 4.875 -3.890625 Z M 12.671875 -7.796875 L 12.671875 -11.6875 L 8.765625 -11.6875 L 8.765625 -7.796875 Z M 12.671875 -7.796875 "/></g></g></g><g fill="#ffffff" fill-opacity="1"><g transform="translate(1147.192292, 685.975769)"><g><path d="M 12.671875 -15.59375 C 12.671875 -17.734375 10.90625 -19.484375 8.765625 -19.484375 L 0.96875 -19.484375 L 0.96875 -15.59375 L 8.765625 -15.59375 L 8.765625 -3.890625 L 0.96875 -3.890625 L 0.96875 0 L 20.46875 0 L 20.46875 -3.890625 L 12.671875 -3.890625 Z M 12.671875 -15.59375 "/></g></g></g><g fill="#ffffff" fill-opacity="1"><g transform="translate(1172.469452, 685.975769)"><g><path d="M 16.5625 0 C 18.734375 0 20.46875 -1.78125 20.46875 -3.890625 L 20.46875 -15.59375 C 20.46875 -17.734375 18.703125 -19.484375 16.5625 -19.484375 L 4.875 -19.484375 C 2.734375 -19.484375 0.96875 -17.734375 0.96875 -15.59375 L 0.96875 -3.890625 C 0.96875 -1.75 2.734375 0 4.875 0 Z M 4.875 -15.59375 L 16.5625 -15.59375 L 16.5625 -3.890625 L 4.875 -3.890625 Z M 12.671875 -7.796875 L 12.671875 -11.6875 L 8.765625 -11.6875 L 8.765625 -7.796875 Z M 12.671875 -7.796875 "/></g></g></g><g fill="#ffffff" fill-opacity="1"><g transform="translate(1197.746611, 685.975769)"><g><path d="M 12.671875 -15.59375 C 12.671875 -17.734375 10.90625 -19.484375 8.765625 -19.484375 L 0.96875 -19.484375 L 0.96875 -15.59375 L 8.765625 -15.59375 L 8.765625 -3.890625 L 0.96875 -3.890625 L 0.96875 0 L 20.46875 0 L 20.46875 -3.890625 L 12.671875 -3.890625 Z M 12.671875 -15.59375 "/></g></g></g></svg>