<svg xmlns="http://www.w3.org/2000/svg" xmlns:xlink="http://www.w3.org/1999/xlink" width="1920" zoomAndPan="magnify" viewBox="0 0 1440 1439.999935" height="1920" preserveAspectRatio="xMidYMid meet" version="1.0"><defs><g/><clipPath id="23fde705cd"><path d="M 686 515 L 1221.089844 515 L 1221.089844 928 L 686 928 Z M 686 515 " clip-rule="nonzero"/></clipPath></defs><g clip-path="url(#23fde705cd)"><path fill="#ffffff" d="M 925.347656 601.742188 C 930.621094 591.449219 934.324219 583.253906 938.851562 575.546875 C 956.492188 545.511719 980.46875 523.082031 1016 517.285156 C 1044.964844 512.558594 1073 517.46875 1099.109375 531.296875 C 1133.59375 549.554688 1153.421875 578.910156 1161.257812 616.441406 C 1167.507812 646.363281 1164.105469 675.898438 1154.507812 704.769531 C 1153.429688 708.019531 1151.972656 711.144531 1150.503906 714.808594 C 1108.300781 714.808594 1066.378906 714.808594 1022.933594 714.808594 C 1019.941406 709.25 1016.394531 702.929688 1013.082031 696.488281 C 1008.324219 687.25 1003.578125 678.015625 999.136719 668.632812 C 995.347656 660.640625 990.121094 654.261719 980.636719 654.867188 C 971.410156 655.460938 966.589844 661.703125 963.503906 670.285156 C 955.023438 693.902344 945.9375 717.308594 937.070312 740.785156 C 936.316406 742.789062 935.417969 744.742188 933.890625 748.367188 C 932.066406 744.867188 930.519531 742.65625 929.707031 740.191406 C 919.027344 708.179688 908.453125 676.136719 897.855469 644.101562 C 897.175781 642.042969 896.691406 639.921875 895.890625 637.917969 C 892.917969 630.492188 887.777344 625.347656 879.480469 625.28125 C 871.382812 625.21875 865.640625 629.476562 862.554688 637.117188 C 854.785156 656.382812 846.996094 675.644531 839.167969 694.886719 C 836.566406 701.28125 833.8125 707.617188 830.507812 715.4375 C 825.628906 715.4375 820.535156 715.429688 815.445312 715.4375 C 802.882812 715.46875 790.304688 715.136719 777.757812 715.652344 C 767.761719 716.0625 761.503906 722.875 761.273438 732.210938 C 761.054688 741.046875 766.527344 747.984375 775.425781 749.792969 C 777.945312 750.300781 780.601562 750.230469 783.1875 750.238281 C 801.8125 750.269531 820.449219 749.992188 839.070312 750.347656 C 850.144531 750.554688 856.894531 745.71875 860.769531 735.511719 C 865.664062 722.613281 871.089844 709.910156 877.269531 694.703125 C 879.972656 702.375 881.980469 707.773438 883.789062 713.238281 C 894.121094 744.457031 904.425781 775.679688 914.671875 806.929688 C 917.296875 814.933594 921.546875 820.847656 930.835938 821.363281 C 939.941406 821.871094 945.546875 818.328125 949.378906 808.40625 C 956.546875 789.839844 963.375 771.144531 970.347656 752.5 C 974.582031 741.179688 978.835938 729.863281 983.792969 716.625 C 987.289062 723.453125 990.453125 728.4375 992.492188 733.859375 C 997.109375 746.128906 1005.507812 750.5625 1018.578125 750.460938 C 1077.925781 750 1137.28125 750.246094 1196.632812 750.261719 C 1200.960938 750.261719 1205.347656 750.023438 1209.609375 750.585938 C 1216.300781 751.460938 1220.996094 756.789062 1221.042969 762.738281 C 1221.089844 768.613281 1216.4375 774.046875 1209.820312 775.171875 C 1206.441406 775.738281 1202.914062 775.492188 1199.449219 775.5 C 1174.757812 775.53125 1150.066406 775.632812 1125.371094 775.476562 C 1119.820312 775.4375 1115.75 776.6875 1112.03125 781.4375 C 1072.8125 831.570312 1023.558594 870.171875 970.078125 903.769531 C 957.984375 911.367188 945.382812 918.148438 933.105469 925.453125 C 928.242188 928.347656 923.839844 928.738281 918.621094 925.828125 C 852.699219 889.097656 791.808594 846 743.507812 787.109375 C 718.21875 756.28125 698.691406 722.265625 690.632812 682.726562 C 682.757812 644.070312 685.914062 606.566406 707.351562 572.546875 C 729.183594 537.898438 762.203125 520.671875 802.269531 516.453125 C 851.960938 511.21875 887.300781 533.449219 912.109375 575.070312 C 914.542969 579.15625 916.582031 583.484375 918.699219 587.738281 C 920.605469 591.558594 922.378906 595.453125 925.347656 601.742188 Z M 925.347656 601.742188 " fill-opacity="1" fill-rule="nonzero"/></g><g fill="#ffffff" fill-opacity="1"><g transform="translate(247.668556, 918.165874)"><g><path d="M 420.53125 -320.40625 C 420.53125 -363.953125 384.984375 -400.5 340.421875 -400.5 L 20.03125 -400.5 L 20.03125 0 L 340.421875 0 C 384.984375 0 420.53125 -36.546875 420.53125 -80.09375 L 420.53125 -160.203125 C 420.53125 -182.234375 402.5 -200.25 380.46875 -200.25 C 402.5 -200.25 420.53125 -218.265625 420.53125 -240.296875 Z M 340.421875 -320.40625 L 340.421875 -240.296875 L 100.125 -240.296875 L 100.125 -320.40625 Z M 100.125 -80.09375 L 100.125 -160.203125 L 340.421875 -160.203125 L 340.421875 -80.09375 Z M 100.125 -80.09375 "/></g></g></g><g fill="#ffffff" fill-opacity="1"><g transform="translate(1027.911347, 743.053698)"><g><path d="M 15.921875 0 C 18.015625 0 19.671875 -1.703125 19.671875 -3.75 L 19.671875 -14.984375 C 19.671875 -17.046875 17.984375 -18.734375 15.921875 -18.734375 L 4.6875 -18.734375 C 2.625 -18.734375 0.9375 -17.046875 0.9375 -14.984375 L 0.9375 -3.75 C 0.9375 -1.6875 2.625 0 4.6875 0 Z M 4.6875 -14.984375 L 15.921875 -14.984375 L 15.921875 -3.75 L 4.6875 -3.75 Z M 12.171875 -7.5 L 12.171875 -11.25 L 8.4375 -11.25 L 8.4375 -7.5 Z M 12.171875 -7.5 "/></g></g></g><g fill="#ffffff" fill-opacity="1"><g transform="translate(1052.219472, 743.053698)"><g><path d="M 12.171875 -14.984375 C 12.171875 -17.046875 10.5 -18.734375 8.4375 -18.734375 L 0.9375 -18.734375 L 0.9375 -14.984375 L 8.4375 -14.984375 L 8.4375 -3.75 L 0.9375 -3.75 L 0.9375 0 L 19.671875 0 L 19.671875 -3.75 L 12.171875 -3.75 Z M 12.171875 -14.984375 "/></g></g></g><g fill="#ffffff" fill-opacity="1"><g transform="translate(1076.527598, 743.053698)"><g><path d="M 15.921875 0 C 18.015625 0 19.671875 -1.703125 19.671875 -3.75 L 19.671875 -14.984375 C 19.671875 -17.046875 17.984375 -18.734375 15.921875 -18.734375 L 4.6875 -18.734375 C 2.625 -18.734375 0.9375 -17.046875 0.9375 -14.984375 L 0.9375 -3.75 C 0.9375 -1.6875 2.625 0 4.6875 0 Z M 4.6875 -14.984375 L 15.921875 -14.984375 L 15.921875 -3.75 L 4.6875 -3.75 Z M 12.171875 -7.5 L 12.171875 -11.25 L 8.4375 -11.25 L 8.4375 -7.5 Z M 12.171875 -7.5 "/></g></g></g><g fill="#ffffff" fill-opacity="1"><g transform="translate(1100.835721, 743.053698)"><g><path d="M 15.921875 0 C 18.015625 0 19.671875 -1.703125 19.671875 -3.75 L 19.671875 -14.984375 C 19.671875 -17.046875 17.984375 -18.734375 15.921875 -18.734375 L 4.6875 -18.734375 C 2.625 -18.734375 0.9375 -17.046875 0.9375 -14.984375 L 0.9375 -3.75 C 0.9375 -1.6875 2.625 0 4.6875 0 Z M 4.6875 -14.984375 L 15.921875 -14.984375 L 15.921875 -3.75 L 4.6875 -3.75 Z M 12.171875 -7.5 L 12.171875 -11.25 L 8.4375 -11.25 L 8.4375 -7.5 Z M 12.171875 -7.5 "/></g></g></g><g fill="#ffffff" fill-opacity="1"><g transform="translate(1125.143848, 743.053698)"><g><path d="M 15.921875 0 C 18.015625 0 19.671875 -1.703125 19.671875 -3.75 L 19.671875 -14.984375 C 19.671875 -17.046875 17.984375 -18.734375 15.921875 -18.734375 L 4.6875 -18.734375 C 2.625 -18.734375 0.9375 -17.046875 0.9375 -14.984375 L 0.9375 -3.75 C 0.9375 -1.6875 2.625 0 4.6875 0 Z M 4.6875 -14.984375 L 15.921875 -14.984375 L 15.921875 -3.75 L 4.6875 -3.75 Z M 12.171875 -7.5 L 12.171875 -11.25 L 8.4375 -11.25 L 8.4375 -7.5 Z M 12.171875 -7.5 "/></g></g></g><g fill="#ffffff" fill-opacity="1"><g transform="translate(1149.451975, 743.053698)"><g><path d="M 15.921875 0 C 18.015625 0 19.671875 -1.703125 19.671875 -3.75 L 19.671875 -14.984375 C 19.671875 -17.046875 17.984375 -18.734375 15.921875 -18.734375 L 4.6875 -18.734375 C 2.625 -18.734375 0.9375 -17.046875 0.9375 -14.984375 L 0.9375 -3.75 C 0.9375 -1.6875 2.625 0 4.6875 0 Z M 4.6875 -14.984375 L 15.921875 -14.984375 L 15.921875 -3.75 L 4.6875 -3.75 Z M 12.171875 -7.5 L 12.171875 -11.25 L 8.4375 -11.25 L 8.4375 -7.5 Z M 12.171875 -7.5 "/></g></g></g><g fill="#ffffff" fill-opacity="1"><g transform="translate(1173.760096, 743.053698)"><g><path d="M 12.171875 -14.984375 C 12.171875 -17.046875 10.5 -18.734375 8.4375 -18.734375 L 0.9375 -18.734375 L 0.9375 -14.984375 L 8.4375 -14.984375 L 8.4375 -3.75 L 0.9375 -3.75 L 0.9375 0 L 19.671875 0 L 19.671875 -3.75 L 12.171875 -3.75 Z M 12.171875 -14.984375 "/></g></g></g><g fill="#ffffff" fill-opacity="1"><g transform="translate(1198.068216, 743.053698)"><g><path d="M 15.921875 0 C 18.015625 0 19.671875 -1.703125 19.671875 -3.75 L 19.671875 -14.984375 C 19.671875 -17.046875 17.984375 -18.734375 15.921875 -18.734375 L 4.6875 -18.734375 C 2.625 -18.734375 0.9375 -17.046875 0.9375 -14.984375 L 0.9375 -3.75 C 0.9375 -1.6875 2.625 0 4.6875 0 Z M 4.6875 -14.984375 L 15.921875 -14.984375 L 15.921875 -3.75 L 4.6875 -3.75 Z M 12.171875 -7.5 L 12.171875 -11.25 L 8.4375 -11.25 L 8.4375 -7.5 Z M 12.171875 -7.5 "/></g></g></g></svg>